<svg xmlns="http://www.w3.org/2000/svg" width="1500" height="800" viewBox="0 0 1500 800" role="img" aria-labelledby="title desc">
<title id="title">gpt-5.6-sol 提示词版本迭代通过率</title>
<desc id="desc">不同提示词版本在120条medium测试集下，low、medium、high三种推理等级的通过案例数与通过率折线图。</desc>
<rect width="1500" height="800" fill="#FFFFFF"/>
<rect x="70" y="105" width="1370" height="590" rx="14" fill="#F8FAFC" stroke="#E2E8F0"/>
<g font-family="-apple-system,BlinkMacSystemFont,Segoe UI,PingFang SC,Hiragino Sans GB,Arial,sans-serif">
<text x="750" y="57" text-anchor="middle" font-size="30" font-weight="700" fill="#0F172A">gpt-5.6-sol 提示词版本迭代通过率</text>
<text x="750" y="88" text-anchor="middle" font-size="17" fill="#64748B">120 条 medium 测试集 · 仅绘制已有完整回归记录</text>
<line x1="115" y1="556.5" x2="1370" y2="556.5" stroke="#CBD5E1" stroke-width="1"/>
<text x="97" y="561.5" text-anchor="end" font-size="15" fill="#475569">60</text>
<text x="1388" y="561.5" text-anchor="start" font-size="15" fill="#475569">50%</text>
<line x1="115" y1="463.0" x2="1370" y2="463.0" stroke="#CBD5E1" stroke-width="1"/>
<text x="97" y="468.0" text-anchor="end" font-size="15" fill="#475569">75</text>
<text x="1388" y="468.0" text-anchor="start" font-size="15" fill="#475569">62.5%</text>
<line x1="115" y1="369.4" x2="1370" y2="369.4" stroke="#CBD5E1" stroke-width="1"/>
<text x="97" y="374.4" text-anchor="end" font-size="15" fill="#475569">90</text>
<text x="1388" y="374.4" text-anchor="start" font-size="15" fill="#475569">75%</text>
<line x1="115" y1="275.9" x2="1370" y2="275.9" stroke="#CBD5E1" stroke-width="1"/>
<text x="97" y="280.9" text-anchor="end" font-size="15" fill="#475569">105</text>
<text x="1388" y="280.9" text-anchor="start" font-size="15" fill="#475569">87.5%</text>
<line x1="115" y1="182.4" x2="1370" y2="182.4" stroke="#CBD5E1" stroke-width="1"/>
<text x="97" y="187.4" text-anchor="end" font-size="15" fill="#475569">120</text>
<text x="1388" y="187.4" text-anchor="start" font-size="15" fill="#475569">100%</text>
<line x1="115" y1="145" x2="115" y2="650" stroke="#94A3B8" stroke-width="1.5"/>
<line x1="115" y1="650" x2="1370" y2="650" stroke="#94A3B8" stroke-width="1.5"/>
<line x1="115.0" y1="650" x2="115.0" y2="656" stroke="#94A3B8"/>
<text x="115.0" y="678" text-anchor="middle" font-size="15" fill="#475569"><tspan x="115.0">5.5</tspan><tspan x="115.0" dy="18">基线</tspan></text>
<line x1="240.5" y1="650" x2="240.5" y2="656" stroke="#94A3B8"/>
<text x="240.5" y="681" text-anchor="middle" font-size="15" fill="#475569">v5</text>
<line x1="366.0" y1="650" x2="366.0" y2="656" stroke="#94A3B8"/>
<text x="366.0" y="681" text-anchor="middle" font-size="15" fill="#475569">v18</text>
<line x1="491.5" y1="650" x2="491.5" y2="656" stroke="#94A3B8"/>
<text x="491.5" y="681" text-anchor="middle" font-size="15" fill="#475569">v19</text>
<line x1="617.0" y1="650" x2="617.0" y2="656" stroke="#94A3B8"/>
<text x="617.0" y="681" text-anchor="middle" font-size="15" fill="#475569">v20</text>
<line x1="742.5" y1="650" x2="742.5" y2="656" stroke="#94A3B8"/>
<text x="742.5" y="681" text-anchor="middle" font-size="15" fill="#475569">v21</text>
<line x1="868.0" y1="650" x2="868.0" y2="656" stroke="#94A3B8"/>
<text x="868.0" y="681" text-anchor="middle" font-size="15" fill="#475569">v24</text>
<line x1="993.5" y1="650" x2="993.5" y2="656" stroke="#94A3B8"/>
<text x="993.5" y="681" text-anchor="middle" font-size="15" fill="#475569">v30</text>
<line x1="1119.0" y1="650" x2="1119.0" y2="656" stroke="#94A3B8"/>
<text x="1119.0" y="681" text-anchor="middle" font-size="15" fill="#475569">v31</text>
<line x1="1244.5" y1="650" x2="1244.5" y2="656" stroke="#94A3B8"/>
<text x="1244.5" y="681" text-anchor="middle" font-size="15" fill="#475569">v32</text>
<line x1="1370.0" y1="650" x2="1370.0" y2="656" stroke="#94A3B8"/>
<text x="1370.0" y="681" text-anchor="middle" font-size="15" fill="#475569">v33</text>
<text x="742" y="735" text-anchor="middle" font-size="17" fill="#334155">提示词版本</text>
<text x="29" y="400" transform="rotate(-90 29 400)" text-anchor="middle" font-size="17" fill="#334155">通过案例数（共 120 条）</text>
<text x="1473" y="400" transform="rotate(90 1473 400)" text-anchor="middle" font-size="17" fill="#334155">通过率</text>
<polyline points="115.0,400.6 240.5,182.4 366.0,269.7 868.0,188.6 1244.5,188.6 1370.0,182.4" fill="none" stroke="#2563EB" stroke-width="4" stroke-linecap="round" stroke-linejoin="round"/>
<circle cx="115.0" cy="400.6" r="7" fill="#2563EB" stroke="#fff" stroke-width="2"/>
<text x="115.0" y="387.6" text-anchor="middle" font-size="14" font-weight="700" fill="#2563EB">85</text>
<circle cx="240.5" cy="182.4" r="7" fill="#2563EB" stroke="#fff" stroke-width="2"/>
<text x="240.5" y="206.4" text-anchor="middle" font-size="14" font-weight="700" fill="#2563EB">120</text>
<circle cx="366.0" cy="269.7" r="7" fill="#2563EB" stroke="#fff" stroke-width="2"/>
<text x="366.0" y="256.7" text-anchor="middle" font-size="14" font-weight="700" fill="#2563EB">106</text>
<circle cx="868.0" cy="188.6" r="7" fill="#2563EB" stroke="#fff" stroke-width="2"/>
<text x="868.0" y="212.6" text-anchor="middle" font-size="14" font-weight="700" fill="#2563EB">119</text>
<circle cx="1244.5" cy="188.6" r="7" fill="#2563EB" stroke="#fff" stroke-width="2"/>
<text x="1244.5" y="212.6" text-anchor="middle" font-size="14" font-weight="700" fill="#2563EB">119</text>
<circle cx="1370.0" cy="182.4" r="7" fill="#2563EB" stroke="#fff" stroke-width="2"/>
<text x="1370.0" y="206.4" text-anchor="middle" font-size="14" font-weight="700" fill="#2563EB">120</text>
<polyline points="115.0,519.1 366.0,575.2 491.5,332.0 617.0,375.7 742.5,238.5 868.0,182.4 993.5,188.6 1119.0,244.8 1244.5,182.4 1370.0,182.4" fill="none" stroke="#F59E0B" stroke-width="4" stroke-linecap="round" stroke-linejoin="round"/>
<rect x="108.0" y="512.1" width="14" height="14" rx="2" fill="#F59E0B" stroke="#fff" stroke-width="2"/>
<text x="115.0" y="542.1" text-anchor="middle" font-size="14" font-weight="700" fill="#F59E0B">66</text>
<rect x="359.0" y="568.2" width="14" height="14" rx="2" fill="#F59E0B" stroke="#fff" stroke-width="2"/>
<text x="366.0" y="598.2" text-anchor="middle" font-size="14" font-weight="700" fill="#F59E0B">57</text>
<rect x="484.5" y="325.0" width="14" height="14" rx="2" fill="#F59E0B" stroke="#fff" stroke-width="2"/>
<text x="491.5" y="355.0" text-anchor="middle" font-size="14" font-weight="700" fill="#F59E0B">96</text>
<rect x="610.0" y="368.7" width="14" height="14" rx="2" fill="#F59E0B" stroke="#fff" stroke-width="2"/>
<text x="617.0" y="398.7" text-anchor="middle" font-size="14" font-weight="700" fill="#F59E0B">89</text>
<rect x="735.5" y="231.5" width="14" height="14" rx="2" fill="#F59E0B" stroke="#fff" stroke-width="2"/>
<text x="742.5" y="261.5" text-anchor="middle" font-size="14" font-weight="700" fill="#F59E0B">111</text>
<rect x="861.0" y="175.4" width="14" height="14" rx="2" fill="#F59E0B" stroke="#fff" stroke-width="2"/>
<text x="868.0" y="225.4" text-anchor="middle" font-size="14" font-weight="700" fill="#F59E0B">120</text>
<rect x="986.5" y="181.6" width="14" height="14" rx="2" fill="#F59E0B" stroke="#fff" stroke-width="2"/>
<text x="993.5" y="231.6" text-anchor="middle" font-size="14" font-weight="700" fill="#F59E0B">119</text>
<rect x="1112.0" y="237.8" width="14" height="14" rx="2" fill="#F59E0B" stroke="#fff" stroke-width="2"/>
<text x="1119.0" y="267.8" text-anchor="middle" font-size="14" font-weight="700" fill="#F59E0B">110</text>
<rect x="1237.5" y="175.4" width="14" height="14" rx="2" fill="#F59E0B" stroke="#fff" stroke-width="2"/>
<text x="1244.5" y="225.4" text-anchor="middle" font-size="14" font-weight="700" fill="#F59E0B">120</text>
<rect x="1363.0" y="175.4" width="14" height="14" rx="2" fill="#F59E0B" stroke="#fff" stroke-width="2"/>
<text x="1370.0" y="225.4" text-anchor="middle" font-size="14" font-weight="700" fill="#F59E0B">120</text>
<polyline points="115.0,413.1 366.0,363.2 1370.0,182.4" fill="none" stroke="#16A34A" stroke-width="4" stroke-linecap="round" stroke-linejoin="round"/>
<path d="M 115.0 405.1 L 107.0 420.1 L 123.0 420.1 Z" fill="#16A34A" stroke="#fff" stroke-width="2"/>
<text x="115.0" y="400.1" text-anchor="middle" font-size="14" font-weight="700" fill="#16A34A">83</text>
<path d="M 366.0 355.2 L 358.0 370.2 L 374.0 370.2 Z" fill="#16A34A" stroke="#fff" stroke-width="2"/>
<text x="366.0" y="350.2" text-anchor="middle" font-size="14" font-weight="700" fill="#16A34A">91</text>
<path d="M 1370.0 174.4 L 1362.0 189.4 L 1378.0 189.4 Z" fill="#16A34A" stroke="#fff" stroke-width="2"/>
<text x="1370.0" y="244.4" text-anchor="middle" font-size="14" font-weight="700" fill="#16A34A">120</text>
<line x1="1000" y1="615" x2="1034" y2="615" stroke="#2563EB" stroke-width="4"/>
<circle cx="1017.0" cy="615.0" r="7" fill="#2563EB" stroke="#fff" stroke-width="2"/>
<text x="1045" y="620" font-size="16" fill="#334155">low</text>
<line x1="1120" y1="615" x2="1154" y2="615" stroke="#F59E0B" stroke-width="4"/>
<rect x="1130.0" y="608.0" width="14" height="14" rx="2" fill="#F59E0B" stroke="#fff" stroke-width="2"/>
<text x="1165" y="620" font-size="16" fill="#334155">medium</text>
<line x1="1270" y1="615" x2="1304" y2="615" stroke="#16A34A" stroke-width="4"/>
<path d="M 1287.0 607.0 L 1279.0 622.0 L 1295.0 622.0 Z" fill="#16A34A" stroke="#fff" stroke-width="2"/>
<text x="1315" y="620" font-size="16" fill="#334155">high</text>
<text x="750" y="778" text-anchor="middle" font-size="14" fill="#64748B">v32/v33 采用修复传输异常后的完整汇总；未完成 120 条回归的候选版本未纳入。</text>
</g></svg>